<mxfile host="app.diagrams.net" modified="2021-03-29T11:35:12.771Z" agent="5.0 (Windows NT 10.0; Win64; x64) AppleWebKit/537.36 (KHTML, like Gecko) Chrome/89.0.4389.90 Safari/537.36" etag="1KZt4m7YP8izZxqoVCn3" version="14.5.3" type="github">
  <diagram id="C5RBs43oDa-KdzZeNtuy" name="Page-1">
    <mxGraphModel dx="1422" dy="762" grid="1" gridSize="10" guides="1" tooltips="1" connect="1" arrows="1" fold="1" page="1" pageScale="1" pageWidth="827" pageHeight="1169" math="0" shadow="0">
      <root>
        <mxCell id="WIyWlLk6GJQsqaUBKTNV-0" />
        <mxCell id="WIyWlLk6GJQsqaUBKTNV-1" parent="WIyWlLk6GJQsqaUBKTNV-0" />
        <mxCell id="BfBUYWEbJRCGTBCnNNSS-4" value="&lt;&lt;Interface&gt;&gt;&#xa;IChannel" style="swimlane;fontStyle=0;childLayout=stackLayout;horizontal=1;startSize=26;fillColor=none;horizontalStack=0;resizeParent=1;resizeParentMax=0;resizeLast=0;collapsible=1;marginBottom=0;" vertex="1" parent="WIyWlLk6GJQsqaUBKTNV-1">
          <mxGeometry x="110" y="180" width="220" height="140" as="geometry" />
        </mxCell>
        <mxCell id="BfBUYWEbJRCGTBCnNNSS-5" value="+ Subscribe(Subscriber) : Void" style="text;strokeColor=none;fillColor=none;align=left;verticalAlign=top;spacingLeft=4;spacingRight=4;overflow=hidden;rotatable=0;points=[[0,0.5],[1,0.5]];portConstraint=eastwest;" vertex="1" parent="BfBUYWEbJRCGTBCnNNSS-4">
          <mxGeometry y="26" width="220" height="26" as="geometry" />
        </mxCell>
        <mxCell id="BfBUYWEbJRCGTBCnNNSS-6" value="+ Unsubscribe(Subscriber) : Void" style="text;strokeColor=none;fillColor=none;align=left;verticalAlign=top;spacingLeft=4;spacingRight=4;overflow=hidden;rotatable=0;points=[[0,0.5],[1,0.5]];portConstraint=eastwest;" vertex="1" parent="BfBUYWEbJRCGTBCnNNSS-4">
          <mxGeometry y="52" width="220" height="26" as="geometry" />
        </mxCell>
        <mxCell id="BfBUYWEbJRCGTBCnNNSS-7" value="+ Notify() : Void" style="text;strokeColor=none;fillColor=none;align=left;verticalAlign=top;spacingLeft=4;spacingRight=4;overflow=hidden;rotatable=0;points=[[0,0.5],[1,0.5]];portConstraint=eastwest;" vertex="1" parent="BfBUYWEbJRCGTBCnNNSS-4">
          <mxGeometry y="78" width="220" height="62" as="geometry" />
        </mxCell>
        <mxCell id="BfBUYWEbJRCGTBCnNNSS-8" value="&lt;&lt;Interface&gt;&gt;&#xa;ISubscriber" style="swimlane;fontStyle=0;childLayout=stackLayout;horizontal=1;startSize=26;fillColor=none;horizontalStack=0;resizeParent=1;resizeParentMax=0;resizeLast=0;collapsible=1;marginBottom=0;" vertex="1" parent="WIyWlLk6GJQsqaUBKTNV-1">
          <mxGeometry x="490" y="170" width="200" height="140" as="geometry" />
        </mxCell>
        <mxCell id="BfBUYWEbJRCGTBCnNNSS-9" value="+ Update() : Void&#xa;&#xa;&#xa;&#xa;&#xa;" style="text;strokeColor=none;fillColor=none;align=left;verticalAlign=top;spacingLeft=4;spacingRight=4;overflow=hidden;rotatable=0;points=[[0,0.5],[1,0.5]];portConstraint=eastwest;" vertex="1" parent="BfBUYWEbJRCGTBCnNNSS-8">
          <mxGeometry y="26" width="200" height="114" as="geometry" />
        </mxCell>
        <mxCell id="BfBUYWEbJRCGTBCnNNSS-28" value="Channel" style="swimlane;fontStyle=1;align=center;verticalAlign=top;childLayout=stackLayout;horizontal=1;startSize=26;horizontalStack=0;resizeParent=1;resizeParentMax=0;resizeLast=0;collapsible=1;marginBottom=0;" vertex="1" parent="WIyWlLk6GJQsqaUBKTNV-1">
          <mxGeometry x="120" y="380" width="160" height="160" as="geometry" />
        </mxCell>
        <mxCell id="BfBUYWEbJRCGTBCnNNSS-29" value="- _int : int&#xa;- subscribers : List&#xa;+ Inventory : int" style="text;strokeColor=none;fillColor=none;align=left;verticalAlign=top;spacingLeft=4;spacingRight=4;overflow=hidden;rotatable=0;points=[[0,0.5],[1,0.5]];portConstraint=eastwest;" vertex="1" parent="BfBUYWEbJRCGTBCnNNSS-28">
          <mxGeometry y="26" width="160" height="64" as="geometry" />
        </mxCell>
        <mxCell id="BfBUYWEbJRCGTBCnNNSS-30" value="" style="line;strokeWidth=1;fillColor=none;align=left;verticalAlign=middle;spacingTop=-1;spacingLeft=3;spacingRight=3;rotatable=0;labelPosition=right;points=[];portConstraint=eastwest;" vertex="1" parent="BfBUYWEbJRCGTBCnNNSS-28">
          <mxGeometry y="90" width="160" height="8" as="geometry" />
        </mxCell>
        <mxCell id="BfBUYWEbJRCGTBCnNNSS-31" value="+ Subscribe(Subscriber)&#xa;+ Unsubscribe(Subscriber)&#xa;+ Notify()" style="text;strokeColor=none;fillColor=none;align=left;verticalAlign=top;spacingLeft=4;spacingRight=4;overflow=hidden;rotatable=0;points=[[0,0.5],[1,0.5]];portConstraint=eastwest;" vertex="1" parent="BfBUYWEbJRCGTBCnNNSS-28">
          <mxGeometry y="98" width="160" height="62" as="geometry" />
        </mxCell>
        <mxCell id="BfBUYWEbJRCGTBCnNNSS-32" value="Subscriber" style="swimlane;fontStyle=1;align=center;verticalAlign=top;childLayout=stackLayout;horizontal=1;startSize=26;horizontalStack=0;resizeParent=1;resizeParentMax=0;resizeLast=0;collapsible=1;marginBottom=0;" vertex="1" parent="WIyWlLk6GJQsqaUBKTNV-1">
          <mxGeometry x="500" y="410" width="160" height="130" as="geometry" />
        </mxCell>
        <mxCell id="BfBUYWEbJRCGTBCnNNSS-33" value="+ SubscriberName : String" style="text;strokeColor=none;fillColor=none;align=left;verticalAlign=top;spacingLeft=4;spacingRight=4;overflow=hidden;rotatable=0;points=[[0,0.5],[1,0.5]];portConstraint=eastwest;" vertex="1" parent="BfBUYWEbJRCGTBCnNNSS-32">
          <mxGeometry y="26" width="160" height="26" as="geometry" />
        </mxCell>
        <mxCell id="BfBUYWEbJRCGTBCnNNSS-34" value="" style="line;strokeWidth=1;fillColor=none;align=left;verticalAlign=middle;spacingTop=-1;spacingLeft=3;spacingRight=3;rotatable=0;labelPosition=right;points=[];portConstraint=eastwest;" vertex="1" parent="BfBUYWEbJRCGTBCnNNSS-32">
          <mxGeometry y="52" width="160" height="8" as="geometry" />
        </mxCell>
        <mxCell id="BfBUYWEbJRCGTBCnNNSS-35" value="&#xa;+ Subscriber()&#xa;+Update() : Void" style="text;strokeColor=none;fillColor=none;align=left;verticalAlign=top;spacingLeft=4;spacingRight=4;overflow=hidden;rotatable=0;points=[[0,0.5],[1,0.5]];portConstraint=eastwest;" vertex="1" parent="BfBUYWEbJRCGTBCnNNSS-32">
          <mxGeometry y="60" width="160" height="70" as="geometry" />
        </mxCell>
        <mxCell id="BfBUYWEbJRCGTBCnNNSS-39" value="" style="endArrow=none;html=1;edgeStyle=orthogonalEdgeStyle;entryX=0.456;entryY=-0.031;entryDx=0;entryDy=0;entryPerimeter=0;" edge="1" parent="WIyWlLk6GJQsqaUBKTNV-1" target="BfBUYWEbJRCGTBCnNNSS-32">
          <mxGeometry relative="1" as="geometry">
            <mxPoint x="573" y="300" as="sourcePoint" />
            <mxPoint x="490" y="390" as="targetPoint" />
            <Array as="points">
              <mxPoint x="573" y="312" />
            </Array>
          </mxGeometry>
        </mxCell>
        <mxCell id="BfBUYWEbJRCGTBCnNNSS-40" value="parent" style="edgeLabel;resizable=0;html=1;align=left;verticalAlign=bottom;" connectable="0" vertex="1" parent="BfBUYWEbJRCGTBCnNNSS-39">
          <mxGeometry x="-1" relative="1" as="geometry">
            <mxPoint x="-30" y="-12.05" as="offset" />
          </mxGeometry>
        </mxCell>
        <mxCell id="BfBUYWEbJRCGTBCnNNSS-41" value="child" style="edgeLabel;resizable=0;html=1;align=right;verticalAlign=bottom;" connectable="0" vertex="1" parent="BfBUYWEbJRCGTBCnNNSS-39">
          <mxGeometry x="1" relative="1" as="geometry" />
        </mxCell>
        <mxCell id="BfBUYWEbJRCGTBCnNNSS-42" value="" style="endArrow=none;html=1;edgeStyle=orthogonalEdgeStyle;exitX=0.409;exitY=1;exitDx=0;exitDy=0;exitPerimeter=0;entryX=0.5;entryY=0;entryDx=0;entryDy=0;" edge="1" parent="WIyWlLk6GJQsqaUBKTNV-1" source="BfBUYWEbJRCGTBCnNNSS-7" target="BfBUYWEbJRCGTBCnNNSS-28">
          <mxGeometry relative="1" as="geometry">
            <mxPoint x="330" y="390" as="sourcePoint" />
            <mxPoint x="490" y="390" as="targetPoint" />
          </mxGeometry>
        </mxCell>
        <mxCell id="BfBUYWEbJRCGTBCnNNSS-43" value="parent" style="edgeLabel;resizable=0;html=1;align=left;verticalAlign=bottom;" connectable="0" vertex="1" parent="BfBUYWEbJRCGTBCnNNSS-42">
          <mxGeometry x="-1" relative="1" as="geometry" />
        </mxCell>
        <mxCell id="BfBUYWEbJRCGTBCnNNSS-44" value="child" style="edgeLabel;resizable=0;html=1;align=right;verticalAlign=bottom;" connectable="0" vertex="1" parent="BfBUYWEbJRCGTBCnNNSS-42">
          <mxGeometry x="1" relative="1" as="geometry" />
        </mxCell>
        <mxCell id="BfBUYWEbJRCGTBCnNNSS-47" value="Relation" style="endArrow=open;html=1;endSize=12;startArrow=diamondThin;startSize=14;startFill=0;edgeStyle=orthogonalEdgeStyle;exitX=-0.031;exitY=0.057;exitDx=0;exitDy=0;exitPerimeter=0;entryX=1;entryY=1.047;entryDx=0;entryDy=0;entryPerimeter=0;" edge="1" parent="WIyWlLk6GJQsqaUBKTNV-1" source="BfBUYWEbJRCGTBCnNNSS-35" target="BfBUYWEbJRCGTBCnNNSS-29">
          <mxGeometry relative="1" as="geometry">
            <mxPoint x="330" y="390" as="sourcePoint" />
            <mxPoint x="490" y="390" as="targetPoint" />
          </mxGeometry>
        </mxCell>
        <mxCell id="BfBUYWEbJRCGTBCnNNSS-48" value="0..n" style="edgeLabel;resizable=0;html=1;align=left;verticalAlign=top;" connectable="0" vertex="1" parent="BfBUYWEbJRCGTBCnNNSS-47">
          <mxGeometry x="-1" relative="1" as="geometry">
            <mxPoint x="14.96" y="-3.99" as="offset" />
          </mxGeometry>
        </mxCell>
        <mxCell id="BfBUYWEbJRCGTBCnNNSS-49" value="1" style="edgeLabel;resizable=0;html=1;align=right;verticalAlign=top;" connectable="0" vertex="1" parent="BfBUYWEbJRCGTBCnNNSS-47">
          <mxGeometry x="1" relative="1" as="geometry" />
        </mxCell>
      </root>
    </mxGraphModel>
  </diagram>
</mxfile>
